<svg width="170" height="37" viewBox="0 0 170 37" fill="none" xmlns="http://www.w3.org/2000/svg">
<path d="M16.956 21.852H6.94803L5.29203 26.64H2.58982e-05L9.03603 1.47601H14.904L23.94 26.64H18.612L16.956 21.852ZM15.588 17.82L11.952 7.30801L8.31603 17.82H15.588ZM32.3576 9.79201C33.0056 8.73601 33.8456 7.90801 34.8776 7.30801C35.9336 6.70801 37.1336 6.40801 38.4776 6.40801V11.7H37.1456C35.5616 11.7 34.3616 12.072 33.5456 12.816C32.7536 13.56 32.3576 14.856 32.3576 16.704V26.64H27.3176V6.69601H32.3576V9.79201ZM40.5762 16.668C40.5762 14.604 40.9962 12.804 41.8362 11.268C42.6762 9.70801 43.8402 8.50801 45.3282 7.66801C46.8162 6.80401 48.5202 6.37201 50.4402 6.37201C52.9122 6.37201 54.9522 6.99601 56.5602 8.24401C58.1922 9.46801 59.2842 11.196 59.8362 13.428H54.4002C54.1122 12.564 53.6202 11.892 52.9242 11.412C52.2522 10.908 51.4122 10.656 50.4042 10.656C48.9642 10.656 47.8242 11.184 46.9842 12.24C46.1442 13.272 45.7242 14.748 45.7242 16.668C45.7242 18.564 46.1442 20.04 46.9842 21.096C47.8242 22.128 48.9642 22.644 50.4042 22.644C52.4442 22.644 53.7762 21.732 54.4002 19.908H59.8362C59.2842 22.068 58.1922 23.784 56.5602 25.056C54.9282 26.328 52.8882 26.964 50.4402 26.964C48.5202 26.964 46.8162 26.544 45.3282 25.704C43.8402 24.84 42.6762 23.64 41.8362 22.104C40.9962 20.544 40.5762 18.732 40.5762 16.668ZM74.7605 6.40801C76.2725 6.40801 77.6165 6.74401 78.7925 7.41601C79.9685 8.06401 80.8805 9.03601 81.5285 10.332C82.2005 11.604 82.5365 13.14 82.5365 14.94V26.64H77.4965V15.624C77.4965 14.04 77.1005 12.828 76.3085 11.988C75.5165 11.124 74.4365 10.692 73.0685 10.692C71.6765 10.692 70.5725 11.124 69.7565 11.988C68.9645 12.828 68.5685 14.04 68.5685 15.624V26.64H63.5285V1.43051e-05H68.5685V9.18001C69.2165 8.31601 70.0805 7.64401 71.1605 7.16401C72.2405 6.66001 73.4405 6.40801 74.7605 6.40801ZM105.869 16.236C105.869 16.956 105.821 17.604 105.725 18.18H91.1453C91.2653 19.62 91.7693 20.748 92.6573 21.564C93.5453 22.38 94.6373 22.788 95.9333 22.788C97.8053 22.788 99.1373 21.984 99.9293 20.376H105.365C104.789 22.296 103.685 23.88 102.053 25.128C100.421 26.352 98.4173 26.964 96.0413 26.964C94.1213 26.964 92.3933 26.544 90.8573 25.704C89.3453 24.84 88.1573 23.628 87.2933 22.068C86.4533 20.508 86.0333 18.708 86.0333 16.668C86.0333 14.604 86.4533 12.792 87.2933 11.232C88.1333 9.67201 89.3093 8.47201 90.8213 7.63201C92.3333 6.79201 94.0733 6.37201 96.0413 6.37201C97.9373 6.37201 99.6293 6.78001 101.117 7.59601C102.629 8.41201 103.793 9.57601 104.609 11.088C105.449 12.576 105.869 14.292 105.869 16.236ZM100.649 14.796C100.625 13.5 100.157 12.468 99.2453 11.7C98.3333 10.908 97.2173 10.512 95.8973 10.512C94.6493 10.512 93.5933 10.896 92.7293 11.664C91.8893 12.408 91.3733 13.452 91.1813 14.796H100.649ZM117.18 26.964C115.548 26.964 114.084 26.676 112.788 26.1C111.492 25.5 110.46 24.696 109.692 23.688C108.948 22.68 108.54 21.564 108.468 20.34H113.544C113.64 21.108 114.012 21.744 114.66 22.248C115.332 22.752 116.16 23.004 117.144 23.004C118.104 23.004 118.848 22.812 119.376 22.428C119.928 22.044 120.204 21.552 120.204 20.952C120.204 20.304 119.868 19.824 119.196 19.512C118.548 19.176 117.504 18.816 116.064 18.432C114.576 18.072 113.352 17.7 112.392 17.316C111.456 16.932 110.64 16.344 109.944 15.552C109.272 14.76 108.936 13.692 108.936 12.348C108.936 11.244 109.248 10.236 109.872 9.32401C110.52 8.41201 111.432 7.69201 112.608 7.16401C113.808 6.63601 115.212 6.37201 116.82 6.37201C119.196 6.37201 121.092 6.97201 122.508 8.17201C123.924 9.34801 124.704 10.944 124.848 12.96H120.024C119.952 12.168 119.616 11.544 119.016 11.088C118.44 10.608 117.66 10.368 116.676 10.368C115.764 10.368 115.056 10.536 114.552 10.872C114.072 11.208 113.832 11.676 113.832 12.276C113.832 12.948 114.168 13.464 114.84 13.824C115.512 14.16 116.556 14.508 117.972 14.868C119.412 15.228 120.6 15.6 121.536 15.984C122.472 16.368 123.276 16.968 123.948 17.784C124.644 18.576 125.004 19.632 125.028 20.952C125.028 22.104 124.704 23.136 124.056 24.048C123.432 24.96 122.52 25.68 121.32 26.208C120.144 26.712 118.764 26.964 117.18 26.964ZM140.973 26.64L134.205 18.144V26.64H129.165V1.43051e-05H134.205V15.156L140.901 6.69601H147.453L138.669 16.704L147.525 26.64H140.973ZM169.269 6.69601L156.921 36.072H151.557L155.877 26.136L147.885 6.69601H153.537L158.685 20.628L163.905 6.69601H169.269Z" fill="#424241"/>
</svg>
